<svg height="512" viewBox="0 0 64 64" width="512" xmlns="http://www.w3.org/2000/svg"><g id="virus-covid19-corona-dead-rip"><path d="m34 3h-22l-9 17 9 41h22l2.132-9.711a12.949 12.949 0 0 1 3.3-15.052l3.568-16.237zm-4.965 52h-12.07l-7.692-34.126 6.436-11.874h14.582l6.436 11.874z" fill="#9bc9ff"/><path d="m15.709 9-6.436 11.874 7.692 34.126h12.07l7.692-34.126-6.436-11.874zm15.291 14h-6v10h-4v-10h-6v-4h6v-6h4v6h6z" fill="#9bc9ff"/><circle cx="40" cy="46" fill="none" r="1"/><path d="m41.636 50.95a1 1 0 1 0 1.414 0 1 1 0 0 0 -1.414 0z" fill="none"/><path d="m43.05 39.636a1 1 0 1 0 0 1.414 1 1 0 0 0 0-1.414z" fill="none"/><circle cx="48" cy="54" fill="none" r="1"/><path d="m52.95 52.364a1 1 0 1 0 0-1.414 1 1 0 0 0 0 1.414z" fill="none"/><circle cx="56" cy="46" fill="none" r="1"/><path d="m54.364 41.05a1 1 0 1 0 -1.414 0 1 1 0 0 0 1.414 0z" fill="none"/><path d="m48 42a4 4 0 1 0 2.828 1.172 3.984 3.984 0 0 0 -2.828-1.172z" fill="none"/><circle cx="48" cy="38" fill="none" r="1"/><g fill="#9bc9ff"><path d="m48 42a4 4 0 1 0 2.828 1.172 3.984 3.984 0 0 0 -2.828-1.172z"/><circle cx="48" cy="38" r="1"/><path d="m43.05 39.636a1 1 0 1 0 0 1.414 1 1 0 0 0 0-1.414z"/><circle cx="40" cy="46" r="1"/><path d="m41.636 50.95a1 1 0 1 0 1.414 0 1 1 0 0 0 -1.414 0z"/><circle cx="48" cy="54" r="1"/><path d="m52.95 52.364a1 1 0 1 0 0-1.414 1 1 0 0 0 0 1.414z"/><circle cx="56" cy="46" r="1"/><path d="m54.364 41.05a1 1 0 1 0 -1.414 0 1 1 0 0 0 1.414 0z"/></g><path d="m56 44a1.993 1.993 0 0 0 -1.722 1h-1.378a4.961 4.961 0 0 0 -.732-1.753l.978-.978a1.95 1.95 0 0 0 1.926-.512 2 2 0 0 0 0-2.827 2.047 2.047 0 0 0 -2.828 0 1.95 1.95 0 0 0 -.512 1.926l-.978.978a4.961 4.961 0 0 0 -1.754-.734v-1.378a2 2 0 1 0 -2 0v1.378a4.961 4.961 0 0 0 -1.753.732l-.978-.978a1.95 1.95 0 0 0 -.512-1.926 2.047 2.047 0 0 0 -2.827 0 1.989 1.989 0 0 0 1.925 3.34l.978.978a4.961 4.961 0 0 0 -.733 1.754h-1.378a2 2 0 1 0 0 2h1.378a4.961 4.961 0 0 0 .732 1.753l-.99.99a2.034 2.034 0 0 0 -1.914.5 2.012 2.012 0 1 0 3.34.9l.978-.978a4.961 4.961 0 0 0 1.754.735v1.379a2 2 0 1 0 2 0v-1.379a4.961 4.961 0 0 0 1.753-.732l.978.978a1.95 1.95 0 0 0 .512 1.926 2 2 0 1 0 2.828-2.828 2.033 2.033 0 0 0 -1.914-.5l-.99-.99a4.961 4.961 0 0 0 .733-1.754h1.379a2 2 0 1 0 1.721-3zm-8 5a3 3 0 1 1 3-3 3 3 0 0 1 -3 3z" fill="#1e81ce"/><path d="m37.606 20.4-6.436-11.877a1 1 0 0 0 -.879-.523h-14.582a1 1 0 0 0 -.879.523l-6.436 11.877a1 1 0 0 0 -.1.7l7.695 34.12a1 1 0 0 0 .976.78h12.07a1 1 0 0 0 .976-.78l7.689-34.126a1 1 0 0 0 -.094-.694zm-9.371 33.6h-10.47l-7.433-32.979 5.968-11.021h13.4l5.972 11.021z" fill="#1e81ce"/><path d="m26 13a1 1 0 0 0 -1-1h-4a1 1 0 0 0 -1 1v5h-5a1 1 0 0 0 -1 1v4a1 1 0 0 0 1 1h5v9a1 1 0 0 0 1 1h4a1 1 0 0 0 1-1v-9h5a1 1 0 0 0 1-1v-4a1 1 0 0 0 -1-1h-5zm4 7v2h-5a1 1 0 0 0 -1 1v9h-2v-9a1 1 0 0 0 -1-1h-5v-2h5a1 1 0 0 0 1-1v-5h2v5a1 1 0 0 0 1 1z" fill="#1e81ce"/><path d="m48 32a13.9 13.9 0 0 0 -7.03 1.912l3.007-13.7a1 1 0 0 0 -.093-.682l-9-17a1 1 0 0 0 -.884-.53h-22a1 1 0 0 0 -.884.532l-9 17a1 1 0 0 0 -.093.682l9 41a1 1 0 0 0 .977.786h22a1 1 0 0 0 .977-.786l1.576-7.18a13.994 13.994 0 1 0 11.447-22.034zm-14.8 28h-20.4l-8.745-39.856 8.545-16.144h20.8l8.547 16.144-3.42 15.579a13.945 13.945 0 0 0 -3.442 15.677zm14.8-2a12 12 0 1 1 12-12 12.013 12.013 0 0 1 -12 12z" fill="#1e81ce"/></g></svg>