<svg height="512" viewBox="0 0 512 512" width="512" xmlns="http://www.w3.org/2000/svg"><g id="Flat"><g fill="#a6c72a"><path d="m168 200h176v288h-176z"/><path d="m40 264h128v224h-128z"/><path d="m24 232h144v32h-144z"/><path d="m344 264h128v224h-128z" transform="matrix(-1 0 0 -1 816 752)"/><path d="m344 232h144v32h-144z" transform="matrix(-1 0 0 -1 832 496)"/></g><path d="m384 392h48v96h-48z" fill="#8ed0eb"/><path d="m376 360h64v32h-64z" fill="#f2e09e"/><path d="m80 392h48v96h-48z" fill="#8ed0eb"/><path d="m72 360h64v32h-64z" fill="#f2e09e"/><path d="m208 392h48v96h-48z" fill="#8ed0eb"/><path d="m256 392h48v96h-48z" fill="#8ed0eb"/><path d="m200 360h112v32h-112z" fill="#f2e09e"/><path d="m200 296h40v32h-40z" fill="#8ed0eb"/><path d="m272 296h40v32h-40z" fill="#8ed0eb"/><path d="m200 232h40v32h-40z" fill="#8ed0eb"/><path d="m272 232h40v32h-40z" fill="#8ed0eb"/><path d="m152 168h208v32h-208z" fill="#a6c72a"/><path d="m168 136h176v32h-176z" fill="#37a2c7"/><circle cx="256" cy="96" fill="#8ed0eb" r="72"/><path d="m296 80v32h-24v24h-32v-24h-24v-32h24v-24h32v24z" fill="#e84042"/><path d="m64 296h80v32h-80z" fill="#8ed0eb"/><path d="m368 296h80v32h-80z" fill="#8ed0eb"/><path d="m168 200h176v16h-176z" fill="#68bc40"/><path d="m472 264v16h-112v208h-16v-256h16v32z" fill="#68bc40"/><path d="m40 264v16h112v208h16v-256h-16v32z" fill="#68bc40"/><path d="m248 392h16v96h-16z" fill="#37a2c7"/></g></svg>