<svg height="512" viewBox="0 0 512 512" width="512" xmlns="http://www.w3.org/2000/svg"><g id="flat"><path d="m319.246 256 .367-.269a82 82 0 0 1 70.993-12.7l17.394 4.969 16-16-32-40-32 8-16-24 24-32 16.576 5.1a148 148 0 0 1 102.461 117.124l.119.711a12 12 0 0 1 -2.237 9.173l-37.176 49.568a82 82 0 0 1 -83.388 30.847l-36.355-4.523z" fill="#f5d3bd"/><path d="m192.754 256-.367-.269a82 82 0 0 0 -70.993-12.7l-17.394 4.969-16-16 32-40 32 8 16-24-24-32-16.576 5.1a148 148 0 0 0 -102.461 117.124l-.119.711a12 12 0 0 0 2.237 9.173l37.176 49.568a82 82 0 0 0 83.388 30.847l36.355-4.523z" fill="#f5d3bd"/><path d="m400 312h-40a8 8 0 0 1 0-16h36.687l13.656-13.657a8 8 0 0 1 11.314 11.314l-16 16a8 8 0 0 1 -5.657 2.343z" fill="#e8c8b3"/><path d="m152 312h-40a8 8 0 0 1 -5.657-2.343l-16-16a8 8 0 0 1 11.314-11.314l13.656 13.657h36.687a8 8 0 0 1 0 16z" fill="#e8c8b3"/><path d="m256 416-47.006-33.788a213 213 0 0 1 -64.4-74.2l-.651-1.245a36.26 36.26 0 0 1 1.035-35.467l.031-.053a46.352 46.352 0 0 1 39.746-22.5h2.412a46.355 46.355 0 0 1 34.665 15.58l34.168 39.673 34.169-39.675a46.355 46.355 0 0 1 34.665-15.58h2.412a46.352 46.352 0 0 1 39.746 22.5l.031.053a36.26 36.26 0 0 1 1.035 35.467l-.651 1.245a213 213 0 0 1 -64.4 74.2z" fill="#f55648"/><circle cx="220" cy="324" fill="#a83b32" r="12"/><circle cx="292" cy="324" fill="#a83b32" r="12"/><path d="m272 360h-32a8 8 0 0 1 0-16h32a8 8 0 0 1 0 16z" fill="#a83b32"/><path d="m192 224a8 8 0 0 1 -7.589-5.472l-8-24a8 8 0 0 1 15.18-5.06l8 24a8 8 0 0 1 -7.591 10.532z" fill="#f7ba61"/><path d="m223.992 232a8 8 0 0 1 -6.648-12.439l16-24a8 8 0 0 1 13.312 8.876l-16 24a7.992 7.992 0 0 1 -6.664 3.563z" fill="#f7ba61"/><path d="m320 224a8 8 0 0 1 -7.591-10.532l8-24a8 8 0 0 1 15.18 5.06l-8 24a8 8 0 0 1 -7.589 5.472z" fill="#f7ba61"/><path d="m288.008 232a7.992 7.992 0 0 1 -6.664-3.563l-16-24a8 8 0 1 1 13.312-8.876l16 24a8 8 0 0 1 -6.648 12.439z" fill="#f7ba61"/><g fill="#8ed2ff"><path d="m72 96h16v16h-16z"/><path d="m72 128h16v16h-16z"/><path d="m56 112h16v16h-16z"/><path d="m88 112h16v16h-16z"/><path d="m296 88h16v16h-16z"/><path d="m296 136h16v16h-16z"/><path d="m272 112h16v16h-16z"/><path d="m320 112h16v16h-16z"/></g></g></svg>